<?xml version="1.0" encoding="UTF-8"?>
<svg version="1.1" xmlns="http://www.w3.org/2000/svg" width="800" height="800">
<path d="M0 0 C3.53064237 1.66415489 5.81935682 3.57676893 8.58496094 6.35791016 C9.48559265 7.25869293 10.38622437 8.15947571 11.31414795 9.08755493 C12.28766481 10.07128408 13.26107125 11.0551225 14.234375 12.0390625 C15.23713161 13.04555128 16.24033222 14.05159789 17.24395752 15.05722046 C19.87873813 17.69962147 22.50745611 20.34797428 25.13494873 22.99761963 C27.81939688 25.70256052 30.50954622 28.40181821 33.19921875 31.1015625 C38.47173618 36.39550174 43.73786057 41.69574283 49 47 C47.39141036 51.0095647 44.57405613 53.69977399 41.55844116 56.68206787 C40.99728564 57.24493224 40.43613012 57.80779662 39.85796988 58.38771749 C37.97562709 60.27335563 36.08622302 62.15175458 34.19677734 64.03027344 C32.84631628 65.3801704 31.49629537 66.73050783 30.14668274 68.08125305 C26.47989584 71.7486145 22.80696883 75.4097706 19.13292646 79.06986141 C15.29497972 82.89531785 11.4626843 86.72642706 7.62979126 90.5569458 C0.37004237 97.81047493 -6.89479039 105.05889013 -14.1614536 112.30549169 C-22.4337207 120.55541524 -30.70031924 128.81100877 -38.96644139 137.0670886 C-55.97131802 154.05105199 -72.9833175 171.02786582 -90 188 C-88.39141036 192.0095647 -85.57405613 194.69977399 -82.55844116 197.68206787 C-81.99728564 198.24493224 -81.43613012 198.80779662 -80.85796988 199.38771749 C-78.97562709 201.27335563 -77.08622302 203.15175458 -75.19677734 205.03027344 C-73.84631628 206.3801704 -72.49629537 207.73050783 -71.14668274 209.08125305 C-67.47989584 212.7486145 -63.80696883 216.4097706 -60.13292646 220.06986141 C-56.29497972 223.89531785 -52.4626843 227.72642706 -48.62979126 231.5569458 C-41.37004237 238.81047493 -34.10520961 246.05889013 -26.8385464 253.30549169 C-18.5662793 261.55541524 -10.29968076 269.81100877 -2.03355861 278.0670886 C14.97131802 295.05105199 31.9833175 312.02786582 49 329 C47.33584511 332.53064237 45.42323107 334.81935682 42.64208984 337.58496094 C41.74130707 338.48559265 40.84052429 339.38622437 39.91244507 340.31414795 C38.92871592 341.28766481 37.9448775 342.26107125 36.9609375 343.234375 C35.95444872 344.23713161 34.94840211 345.24033222 33.94277954 346.24395752 C31.30037853 348.87873813 28.65202572 351.50745611 26.00238037 354.13494873 C23.29743948 356.81939688 20.59818179 359.50954622 17.8984375 362.19921875 C12.60449826 367.47173618 7.30425717 372.73786057 2 378 C-0.99420721 376.65493766 -3.08210144 375.16711405 -5.39702225 372.84907341 C-6.05289802 372.19717974 -6.70877379 371.54528606 -7.38452458 370.87363803 C-8.45262211 369.79680198 -8.45262211 369.79680198 -9.54229736 368.69821167 C-10.3052558 367.93696208 -11.06821424 367.17571249 -11.85429263 366.39139473 C-14.4170826 363.83190667 -16.97264528 361.26532147 -19.52832031 358.69873047 C-21.36096983 356.86551699 -23.19405951 355.03274342 -25.02755737 353.20037842 C-28.9781028 349.25088184 -32.92496899 345.29773905 -36.86936188 341.34209824 C-42.57229952 335.62290855 -48.28074987 329.90924754 -53.99056205 324.19692208 C-63.25413507 314.9289715 -72.51323267 305.65656312 -81.76953125 296.38134766 C-90.76132876 287.37119294 -99.75522384 278.36314057 -108.75195312 269.35791016 C-109.30648341 268.80285443 -109.86101369 268.2477987 -110.43234792 267.67592309 C-113.21426822 264.89139272 -115.99622987 262.10690366 -118.77821207 259.32243514 C-141.85855512 236.22135768 -164.93164097 213.11304461 -188 190 C-186.65493766 187.00579279 -185.16711405 184.91789856 -182.84907341 182.60297775 C-182.19717974 181.94710198 -181.54528606 181.29122621 -180.87363803 180.61547542 C-179.79680198 179.54737789 -179.79680198 179.54737789 -178.69821167 178.45770264 C-177.55633729 177.31326498 -177.55633729 177.31326498 -176.39139473 176.14570737 C-173.83190667 173.5829174 -171.26532147 171.02735472 -168.69873047 168.47167969 C-166.86551699 166.63903017 -165.03274342 164.80594049 -163.20037842 162.97244263 C-159.25088184 159.0218972 -155.29773905 155.07503101 -151.34209824 151.13063812 C-145.62290855 145.42770048 -139.90924754 139.71925013 -134.19692208 134.00943795 C-124.9289715 124.74586493 -115.65656312 115.48676733 -106.38134766 106.23046875 C-97.37119294 97.23867124 -88.36314057 88.24477616 -79.35791016 79.24804688 C-78.80285443 78.69351659 -78.2477987 78.13898631 -77.67592309 77.56765208 C-74.89139272 74.78573178 -72.10690366 72.00377013 -69.32243514 69.22178793 C-46.22135768 46.14144488 -23.11304461 23.06835903 0 0 Z " fill="#000000" transform="translate(375,211)"/>
<path d="M0 0 C3.53064237 1.66415489 5.81935682 3.57676893 8.58496094 6.35791016 C9.48559265 7.25869293 10.38622437 8.15947571 11.31414795 9.08755493 C12.28766481 10.07128408 13.26107125 11.0551225 14.234375 12.0390625 C15.23713161 13.04555128 16.24033222 14.05159789 17.24395752 15.05722046 C19.87873813 17.69962147 22.50745611 20.34797428 25.13494873 22.99761963 C27.81939688 25.70256052 30.50954622 28.40181821 33.19921875 31.1015625 C38.47173618 36.39550174 43.73786057 41.69574283 49 47 C45.2327186 51.49648318 41.35063609 55.7936613 37.1913147 59.92893982 C36.63899213 60.48211681 36.08666957 61.0352938 35.51760995 61.60523373 C33.68678956 63.43768668 31.8524452 65.26656873 30.01806641 67.09545898 C28.6967862 68.41645681 27.37572677 69.73767547 26.05487061 71.05909729 C22.48319492 74.63105897 18.90845232 78.19993683 15.33313799 81.76825595 C11.59174654 85.5033809 7.85320141 89.24135259 4.11434937 92.97901917 C-2.9595565 100.04982142 -10.03600683 107.11807146 -17.11338198 114.18540102 C-25.17338816 122.23421591 -33.23054283 130.28588269 -41.28746295 138.33778656 C-57.85514472 154.89502591 -74.42639216 171.44869272 -91 188 C-89.38819302 192.02626565 -86.54717453 194.72653304 -83.52047729 197.72003174 C-82.95523822 198.28697966 -82.38999914 198.85392759 -81.80763161 199.43805575 C-79.91146962 201.33751328 -78.00824535 203.22973195 -76.10498047 205.12207031 C-74.74466731 206.48181937 -73.38479431 207.84200889 -72.02532959 209.2026062 C-68.33168415 212.89682621 -64.63189822 216.58484098 -60.93099737 220.2717905 C-57.06502353 224.1252743 -53.20470077 227.98441061 -49.34378052 231.84295654 C-42.03090769 239.14960954 -34.71295087 246.45114869 -27.3931638 253.75087428 C-19.06043847 262.06125631 -10.73338149 270.37730811 -2.40680099 278.69384623 C14.7224898 295.8022236 31.85890351 312.90345151 49 330 C45.63920823 333.98502372 42.24975325 337.87524598 38.55517578 341.55834961 C37.73477814 342.37867172 36.91438049 343.19899384 36.06912231 344.04417419 C35.20326508 344.90487015 34.33740784 345.7655661 33.4453125 346.65234375 C32.54376434 347.55247696 31.64221619 348.45261017 30.71334839 349.38002014 C28.33801783 351.75072823 25.96054595 354.11924515 23.58197021 356.48669434 C21.14655283 358.91180728 18.71403088 361.33982085 16.28125 363.76757812 C11.52347231 368.51437128 6.7628462 373.25829281 2 378 C-0.99420721 376.65493766 -3.08210144 375.16711405 -5.39702225 372.84907341 C-6.05289802 372.19717974 -6.70877379 371.54528606 -7.38452458 370.87363803 C-8.45262211 369.79680198 -8.45262211 369.79680198 -9.54229736 368.69821167 C-10.3052558 367.93696208 -11.06821424 367.17571249 -11.85429263 366.39139473 C-14.4170826 363.83190667 -16.97264528 361.26532147 -19.52832031 358.69873047 C-21.36096983 356.86551699 -23.19405951 355.03274342 -25.02755737 353.20037842 C-28.9781028 349.25088184 -32.92496899 345.29773905 -36.86936188 341.34209824 C-42.57229952 335.62290855 -48.28074987 329.90924754 -53.99056205 324.19692208 C-63.25413507 314.9289715 -72.51323267 305.65656312 -81.76953125 296.38134766 C-90.76132876 287.37119294 -99.75522384 278.36314057 -108.75195312 269.35791016 C-109.30648341 268.80285443 -109.86101369 268.2477987 -110.43234792 267.67592309 C-113.21426822 264.89139272 -115.99622987 262.10690366 -118.77821207 259.32243514 C-141.85855512 236.22135768 -164.93164097 213.11304461 -188 190 C-186.65493766 187.00579279 -185.16711405 184.91789856 -182.84907341 182.60297775 C-182.19717974 181.94710198 -181.54528606 181.29122621 -180.87363803 180.61547542 C-179.79680198 179.54737789 -179.79680198 179.54737789 -178.69821167 178.45770264 C-177.55633729 177.31326498 -177.55633729 177.31326498 -176.39139473 176.14570737 C-173.83190667 173.5829174 -171.26532147 171.02735472 -168.69873047 168.47167969 C-166.86551699 166.63903017 -165.03274342 164.80594049 -163.20037842 162.97244263 C-159.25088184 159.0218972 -155.29773905 155.07503101 -151.34209824 151.13063812 C-145.62290855 145.42770048 -139.90924754 139.71925013 -134.19692208 134.00943795 C-124.9289715 124.74586493 -115.65656312 115.48676733 -106.38134766 106.23046875 C-97.37119294 97.23867124 -88.36314057 88.24477616 -79.35791016 79.24804688 C-78.80285443 78.69351659 -78.2477987 78.13898631 -77.67592309 77.56765208 C-74.89139272 74.78573178 -72.10690366 72.00377013 -69.32243514 69.22178793 C-46.22135768 46.14144488 -23.11304461 23.06835903 0 0 Z " fill="#000000" transform="translate(564,211)"/>
</svg>
