<?xml version="1.0" encoding="UTF-8"?>
<svg version="1.1" xmlns="http://www.w3.org/2000/svg" width="204" height="192">
<path d="M0 0 C1.4385236 -0.00463984 2.87704599 -0.00966603 4.31556702 -0.01504517 C8.18922863 -0.02804673 12.06287303 -0.03458823 15.936553 -0.03905582 C18.36103732 -0.04200252 20.78551709 -0.04610988 23.20999908 -0.05056 C30.80948637 -0.0641938 38.40896306 -0.07388422 46.00846171 -0.07776189 C54.75792751 -0.08225253 63.50723787 -0.09986414 72.25665641 -0.12876248 C79.04079879 -0.15038794 85.8248974 -0.16046639 92.60907388 -0.16180301 C96.65293403 -0.1628491 100.69664723 -0.16871686 104.74047089 -0.18662262 C108.53926709 -0.20312155 112.33780598 -0.20525013 116.13662529 -0.19648361 C117.52695087 -0.19571459 118.91729043 -0.20003812 120.30758095 -0.20994186 C133.52492731 -0.29855119 133.52492731 -0.29855119 139.36816406 3.16113281 C143.25340879 7.35310739 144.78310145 10.19436152 144.71972656 15.99316406 C144.1104222 19.75054094 142.06183316 22.53834974 139.36816406 25.16113281 C135.85429515 27.40556555 132.89501991 27.4168938 128.77737427 27.42855835 C128.11665448 27.43308946 127.45593469 27.43762058 126.7751931 27.44228899 C124.56278536 27.45494215 122.3506235 27.45331207 120.13818359 27.45166016 C118.55128666 27.45764484 116.96439263 27.46445025 115.37750244 27.47201538 C111.06754098 27.4896886 106.75765893 27.49437131 102.44766474 27.49564695 C98.84926574 27.49754625 95.25088524 27.50490413 91.65249336 27.51199114 C83.16236234 27.52827767 74.67227375 27.53315985 66.18212891 27.53173828 C57.42519994 27.53053671 48.66851738 27.551641 39.91165078 27.58322561 C32.3922062 27.60938018 24.87284214 27.62010592 17.35335243 27.61882746 C12.86282114 27.61831759 8.37250882 27.6240145 3.88202286 27.64518356 C-0.34189895 27.66455227 -4.56539259 27.66469997 -8.78932953 27.6501503 C-10.33809917 27.6480594 -11.8868955 27.65277992 -13.43561935 27.66487122 C-15.55327463 27.6803313 -17.66945487 27.67101292 -19.78707886 27.65560913 C-21.56295537 27.65724343 -21.56295537 27.65724343 -23.37470818 27.65891075 C-28.38575925 26.8930855 -31.54279292 24.60148003 -34.56933594 20.59863281 C-36.07356669 15.73200391 -35.85751081 11.10261948 -34.63183594 6.16113281 C-31.67972748 2.44213585 -28.03051888 1.4817249 -23.39818954 0.86259842 C-15.59462394 0.11557085 -7.83421262 0.00596063 0 0 Z " fill="#EDEDED" transform="translate(47.6318359375,30.8388671875)"/>
<path d="M0 0 C0.66157421 -0.00538554 1.32314842 -0.01077108 2.00477034 -0.01631981 C4.21419181 -0.03058919 6.42301327 -0.02349858 8.63246155 -0.01637268 C10.21950766 -0.02207681 11.80654966 -0.02904124 13.39358521 -0.03717041 C17.69939896 -0.05511237 22.00500904 -0.0539315 26.31084895 -0.04822803 C29.90681919 -0.04513764 33.50275023 -0.05122696 37.09871489 -0.05726677 C45.5826532 -0.07131382 54.06649081 -0.06974925 62.5504303 -0.05836487 C71.30000836 -0.04688341 80.04927991 -0.0609593 88.79881757 -0.08776134 C96.31404622 -0.10991961 103.82917866 -0.11655544 111.34443766 -0.11068493 C115.83158715 -0.10731445 120.31854016 -0.10973642 124.80566216 -0.12693596 C129.02551296 -0.14240508 133.24490979 -0.13845015 137.46474266 -0.11963081 C139.01189334 -0.11594481 140.55907766 -0.11905381 142.10619736 -0.1295166 C144.22162969 -0.14272863 146.3355595 -0.13117987 148.45092773 -0.11352539 C149.63354659 -0.11331611 150.81616545 -0.11310682 152.03462124 -0.1128912 C156.89150871 0.6341796 160.0486388 2.89929979 163.16395569 6.63768005 C164.65533255 10.28326793 164.97500023 13.54281505 164.28895569 17.38768005 C162.20768938 21.32721985 160.10095855 24.08862311 156.28895569 26.38768005 C153.32902527 26.89225769 153.32902527 26.89225769 149.58241272 27.06248474 C148.85766817 27.09543011 148.13292362 27.12837547 147.38621712 27.16231918 C134.57591534 27.66129039 121.73838368 27.57248811 108.91991949 27.58786869 C106.57547243 27.59082799 104.23102994 27.5949371 101.88658524 27.59937286 C94.52845758 27.61297307 87.17034071 27.62268296 79.81220138 27.62657475 C71.35597634 27.63107489 62.89991137 27.64874403 54.443735 27.67757535 C47.87178403 27.69919825 41.2998782 27.70927891 34.72789204 27.71061587 C30.81602261 27.71166097 26.90430522 27.71750905 22.9924736 27.73543549 C19.3232777 27.75193289 15.65434822 27.75406381 11.9851284 27.74529648 C10.00540601 27.74416237 8.02569235 27.75785575 6.04602051 27.77204895 C-0.28346523 27.74238431 -5.18879966 27.62350452 -10.71104431 24.38768005 C-13.80349547 21.05108801 -15.57770031 18.74778887 -16.02354431 14.20018005 C-15.62502471 9.33824087 -14.53313466 7.35386109 -11.71104431 3.38768005 C-7.77620218 0.41872875 -4.87611802 0.01002202 0 0 Z " fill="#EDEDED" transform="translate(27.711044311523438,133.61231994628906)"/>
<path d="M0 0 C0.66480334 -0.00523668 1.32960668 -0.01047336 2.01455557 -0.01586872 C4.24077259 -0.03086282 6.46675965 -0.03157373 8.69302368 -0.03224182 C10.28977343 -0.03986368 11.88651952 -0.04829122 13.48326111 -0.0574646 C17.82007274 -0.07941299 22.15681386 -0.08820886 26.49367476 -0.09329104 C29.20338878 -0.09693398 31.91308431 -0.1031737 34.62279129 -0.11029243 C44.07671165 -0.13478738 53.53057712 -0.14783908 62.98452759 -0.15138245 C71.79603673 -0.15501854 80.60719773 -0.18491898 89.41860044 -0.22678703 C96.98475412 -0.26147751 104.55079234 -0.27693066 112.11702502 -0.27762848 C116.63555951 -0.27842167 121.15373932 -0.28717965 125.67219162 -0.31562614 C129.92244243 -0.34178593 134.17204397 -0.34402402 138.42233849 -0.3279705 C139.9807915 -0.32615437 141.53928167 -0.33286172 143.09765434 -0.34878922 C156.34493779 -0.47591289 156.34493779 -0.47591289 160.25909424 2.69833374 C163.76112478 6.96914527 164.84055709 9.53166356 164.69155884 15.24681091 C164.03913861 19.37615359 161.58243212 22.14381688 158.61112881 24.91678238 C155.68818456 26.68809117 153.69250338 26.6610572 150.28312683 26.67961121 C149.03429214 26.69359451 147.78545746 26.70757782 146.4987793 26.72198486 C145.11715704 26.72240558 143.73553467 26.72253304 142.35391235 26.72239685 C140.89659159 26.73305281 139.4392798 26.74500238 137.98197937 26.75814819 C134.02278462 26.79004232 130.06372024 26.80340109 126.10441709 26.81319714 C121.95175756 26.82631628 117.79920882 26.8554619 113.6466217 26.88261414 C106.66333255 26.92594523 99.68006481 26.95803754 92.69668579 26.98265076 C84.64995103 27.0110689 76.6033891 27.05327433 68.55676514 27.10389018 C59.96661413 27.1579148 51.37643549 27.20362608 42.78621936 27.24592686 C40.32509493 27.25846627 37.86398058 27.27231718 35.40286446 27.28638458 C31.51148215 27.30807952 27.62011389 27.32401639 23.72868919 27.33574104 C22.31025058 27.34079366 20.89181676 27.34758265 19.4733963 27.35635948 C-7.24428455 27.51692722 -7.24428455 27.51692722 -12.62875366 22.27415466 C-15.76076784 17.9297479 -16.00050686 14.5154199 -15.20687866 9.39134216 C-14.17308547 5.60542386 -12.16347492 3.26477127 -8.90633202 1.16238308 C-5.85450708 -0.02779228 -3.27575444 0.01279583 0 0 Z " fill="#F2F2F2" transform="translate(27.628753662109375,82.72584533691406)"/>
<path d="M0 0 C0.66 0.33 1.32 0.66 2 1 C0.35 2.65 -1.3 4.3 -3 6 C-3.99 5.67 -4.98 5.34 -6 5 C-3.375 1.125 -3.375 1.125 0 0 Z " fill="#7E7E7E" transform="translate(19,33)"/>
</svg>
