<?xml version="1.0" encoding="UTF-8"?>
<svg version="1.1" xmlns="http://www.w3.org/2000/svg" width="200" height="200">
<path d="M0 0 C0.87798752 0.00404846 1.75597504 0.00809692 2.66056824 0.01226807 C4.04607124 0.00701111 4.04607124 0.00701111 5.45956421 0.00164795 C8.52338601 -0.00717963 11.58697832 -0.00131658 14.65080261 0.00543213 C16.77307683 0.00408577 18.89535074 0.00214549 21.0176239 -0.00036621 C25.46976146 -0.00331887 29.92181888 0.00098473 34.37394714 0.01031494 C40.09087248 0.02170952 45.80761006 0.01515081 51.5245285 0.00317001 C55.90816166 -0.00404475 60.29175004 -0.00176242 64.67538452 0.0034256 C66.78379336 0.00476316 68.89220621 0.00311069 71.00061035 -0.00153351 C73.94336268 -0.00659244 76.88580765 0.00110259 79.82853699 0.01226807 C80.70652451 0.0082196 81.58451202 0.00417114 82.48910522 0 C88.51602495 0.04252947 88.51602495 0.04252947 90.74455261 2.27105713 C90.98506165 4.10604858 90.98506165 4.10604858 90.97160339 6.35357666 C90.97145233 7.19429718 90.97130127 8.0350177 90.97114563 8.9012146 C90.96082306 9.80959076 90.95050049 10.71796692 90.93986511 11.65386963 C90.93703522 12.58327362 90.93420532 13.51267761 90.93128967 14.47024536 C90.9200733 17.44564563 90.89496622 20.42074748 90.86955261 23.39605713 C90.85952469 25.41037571 90.85039851 27.42469899 90.84220886 29.43902588 C90.82012922 34.38315169 90.78558954 39.32705378 90.74455261 44.27105713 C89.07843356 44.31377813 87.41072376 44.31169545 85.74455261 44.27105713 C85.41455261 43.94105713 85.08455261 43.61105713 84.74455261 43.27105713 C84.74455261 30.73105713 84.74455261 18.19105713 84.74455261 5.27105713 C55.70455261 5.27105713 26.66455261 5.27105713 -3.25544739 5.27105713 C-2.92852608 33.35872929 -2.92852608 33.35872929 -2.59724426 61.4463501 C-2.5337677 67.00567627 -2.5337677 67.00567627 -2.50410461 69.64682007 C-2.48398474 71.40700089 -2.46313863 73.16717355 -2.44160461 74.92733765 C-2.22106824 93.04390897 -2.25544739 111.15039424 -2.25544739 129.27105713 C26.45455261 129.27105713 55.16455261 129.27105713 84.74455261 129.27105713 C84.74455261 124.32105713 84.74455261 119.37105713 84.74455261 114.27105713 C86.39455261 113.94105713 88.04455261 113.61105713 89.74455261 113.27105713 C91.9036008 115.43010532 90.97614796 120.15990258 90.99455261 123.14605713 C91.01517761 123.97492432 91.03580261 124.8037915 91.05705261 125.65777588 C91.06478699 126.85467041 91.06478699 126.85467041 91.07267761 128.07574463 C91.08202332 128.807771 91.09136902 129.53979736 91.10099792 130.29400635 C90.63641041 132.870876 89.75692641 133.63297405 87.74455261 135.27105713 C84.73217584 135.56225687 81.92737433 135.6703348 78.91447449 135.64337158 C78.01177322 135.64702225 77.10907196 135.65067291 76.17901611 135.6544342 C73.19025454 135.66255097 70.20203321 135.64892016 67.21330261 135.63433838 C65.13969422 135.63381991 63.06608533 135.6343371 60.99247742 135.635849 C56.64462455 135.63575922 52.29695691 135.62531915 47.94914246 135.60723877 C42.37021355 135.58455151 36.79155541 135.58400698 31.21259308 135.59075642 C26.93013595 135.59409462 22.64774079 135.5874691 18.36529541 135.57762718 C16.30795618 135.57377233 14.25061006 135.57262814 12.19326782 135.57421303 C9.32025471 135.57458303 6.44759141 135.56198152 3.57463074 135.54571533 C2.29345116 135.54943146 2.29345116 135.54943146 0.98638916 135.55322266 C-2.93644411 135.5176962 -4.91791516 135.49607862 -8.25544739 133.27105713 C-8.6301775 130.98467255 -8.6301775 130.98467255 -8.62966919 128.07073975 C-8.6366835 126.96862656 -8.64369781 125.86651337 -8.65092468 124.73100281 C-8.64328094 123.5163887 -8.63563721 122.3017746 -8.62776184 121.050354 C-8.63141251 119.77555679 -8.63506317 118.50075958 -8.63882446 117.18733215 C-8.64824902 113.68526172 -8.63879516 110.18346999 -8.62549233 106.68142128 C-8.61419713 103.02147999 -8.61828384 99.36155282 -8.62023926 95.70159912 C-8.62112285 89.55462069 -8.61002834 83.4077524 -8.59162903 77.26080322 C-8.57046036 70.14779364 -8.56695112 63.03494547 -8.57319099 55.92191076 C-8.57888013 49.08751125 -8.57324431 42.25316876 -8.56201744 35.41877747 C-8.55736547 32.50652515 -8.55650018 29.59430764 -8.55860329 26.68205261 C-8.56083178 22.61853534 -8.54639696 18.55524542 -8.53010559 14.49176025 C-8.53258301 13.27714615 -8.53506042 12.06253204 -8.53761292 10.81111145 C-8.53052811 9.70899826 -8.5234433 8.60688507 -8.5161438 7.47137451 C-8.51409093 6.50977669 -8.51203806 5.54817886 -8.50992298 4.55744171 C-7.93363801 -0.6203007 -4.35967492 0.03076442 0 0 Z " fill="#000000" transform="translate(42.25544738769531,31.72894287109375)"/>
<path d="M0 0 C4.27986062 0.83753827 6.66981339 3.12379178 9.75 6.0625 C10.25660156 6.53494141 10.76320313 7.00738281 11.28515625 7.49414062 C12.52949613 8.65630711 13.76558064 9.82730161 15 11 C13.58080508 15.46032688 11.13383525 18.32852416 7.9375 21.625 C4.32133654 25.45384421 0.85406627 29.3200279 -2.4375 33.4375 C-5.80346662 37.62237799 -9.33179641 41.58310464 -13 45.5 C-16.70706066 49.45901947 -20.27579911 53.46604113 -23.6875 57.6875 C-24.40808594 58.57050781 -25.12867188 59.45351562 -25.87109375 60.36328125 C-27.30163403 62.13505132 -28.71035019 63.92464578 -30.09765625 65.73046875 C-35.75407771 72.68037316 -41.35216712 75.74019637 -50 78 C-55.28863907 78.53961616 -60.50791432 78.48286907 -65.8125 78.3125 C-67.19852656 78.28733494 -68.58459818 78.26453652 -69.97070312 78.24414062 C-73.31499252 78.18587774 -76.65687829 78.10412214 -80 78 C-80 76.35 -80 74.7 -80 73 C-71.75 73 -63.5 73 -55 73 C-54.855625 71.06125 -54.71125 69.1225 -54.5625 67.125 C-53.33133492 59.11375681 -49.5967899 55.51759005 -44 50 C-42.53957984 48.24802114 -41.10223553 46.47657248 -39.6875 44.6875 C-35.79549728 39.87174096 -31.6674213 35.34750038 -27.43774414 30.83227539 C-24.36050275 27.52857246 -21.44356833 24.15606887 -18.625 20.625 C-12.82243406 13.38519962 -6.38138623 6.72632603 0 0 Z M1 7 C0.67 8.32 0.34 9.64 0 11 C2.475 12.98 2.475 12.98 5 15 C5.66 14.67 6.32 14.34 7 14 C5.60667426 10.63279613 4.0210714 9.0140476 1 7 Z M-6 15 C-7.90615253 17.06600393 -9.71094082 19.14849999 -11.5 21.3125 C-12.58842545 22.60796379 -13.67828831 23.90222115 -14.76953125 25.1953125 C-15.31432129 25.84145508 -15.85911133 26.48759766 -16.42041016 27.15332031 C-18.6176085 29.72203875 -20.89452836 32.20374736 -23.1875 34.6875 C-27.24194306 39.10522116 -31.05093821 43.6749591 -34.81640625 48.33984375 C-38.09340113 52.3320325 -41.53235604 56.17330843 -45 60 C-43.95125002 62.62187494 -43.35068687 63.79371361 -40.875 65.25 C-40.25625 65.4975 -39.6375 65.745 -39 66 C-32.31341204 58.68107877 -25.68563949 51.32595841 -19.25390625 43.78125 C-18.23182381 42.58328813 -17.20968688 41.38537275 -16.1875 40.1875 C-15.67614502 39.58728027 -15.16479004 38.98706055 -14.63793945 38.36865234 C-10.49987483 33.53212251 -6.22260046 28.84445695 -1.86328125 24.20703125 C0.18776233 22.0539766 0.18776233 22.0539766 1 19 C-2.09327895 16.02324541 -2.09327895 16.02324541 -6 15 Z M-48 68 C-48 68.66 -48 69.32 -48 70 C-47.01 69.67 -46.02 69.34 -45 69 C-45.99 68.67 -46.98 68.34 -48 68 Z " fill="#000000" transform="translate(163,55)"/>
<path d="M0 0 C0.98367554 -0.0038269 1.96735107 -0.00765381 2.98083496 -0.01159668 C5.05868555 -0.01431627 7.13657035 -0.00695182 9.21435547 0.00976562 C12.39498211 0.03117416 15.57334987 0.00996512 18.75390625 -0.015625 C20.77344249 -0.01298173 22.79297732 -0.00785678 24.8125 0 C25.76362671 -0.00809692 26.71475342 -0.01619385 27.69470215 -0.02453613 C34.21237676 0.06803691 34.21237676 0.06803691 37.50170898 2.26391602 C40.00277477 6.301357 39.52237829 10.34094446 39.46875 14.96875 C39.50452148 16.38124023 39.50452148 16.38124023 39.54101562 17.82226562 C39.53908203 18.73556641 39.53714844 19.64886719 39.53515625 20.58984375 C39.53588135 21.41798584 39.53660645 22.24612793 39.53735352 23.09936523 C38.56004792 26.86529985 37.04233437 28.25136882 33.90625 30.53125 C30.6600159 31.24173816 27.5000942 31.2090051 24.1875 31.16015625 C22.78425476 31.16377419 22.78425476 31.16377419 21.35266113 31.16746521 C19.37910717 31.16648778 17.40552545 31.1531189 15.43212891 31.12817383 C12.41604213 31.0938614 9.40288588 31.10752096 6.38671875 31.12695312 C4.4661334 31.12005441 2.54555559 31.1103818 0.625 31.09765625 C-0.72362122 31.10509605 -0.72362122 31.10509605 -2.0994873 31.11268616 C-6.1582652 31.0365635 -8.5657046 30.82710165 -12.16186523 28.81225586 C-14.43487696 26.12847618 -14.72553689 24.94599777 -14.72265625 21.46875 C-14.72458984 20.50710937 -14.72652344 19.54546875 -14.72851562 18.5546875 C-14.70466797 17.55695312 -14.68082031 16.55921875 -14.65625 15.53125 C-14.66720703 14.53351562 -14.67816406 13.53578125 -14.68945312 12.5078125 C-14.61782477 5.38317895 -14.61782477 5.38317895 -12.68920898 2.24804688 C-8.64812633 -0.42497478 -4.74357962 -0.040382 0 0 Z M-8.09375 6.53125 C-9.57994895 9.50364791 -9.22552009 12.22744578 -9.21875 15.53125 C-9.22132812 16.789375 -9.22390625 18.0475 -9.2265625 19.34375 C-9.31602358 22.42802818 -9.31602358 22.42802818 -8.09375 24.53125 C-2.41544922 24.55589705 3.26282069 24.57408462 8.94116211 24.58618164 C10.87443585 24.59122256 12.80770576 24.59805519 14.7409668 24.60668945 C17.51351872 24.61876565 20.28602041 24.62448057 23.05859375 24.62890625 C23.92838364 24.63406754 24.79817352 24.63922882 25.69432068 24.64454651 C27.76530814 24.64474185 29.83619324 24.59333168 31.90625 24.53125 C32.40125 24.03625 32.40125 24.03625 32.90625 23.53125 C32.90625 17.92125 32.90625 12.31125 32.90625 6.53125 C19.37625 6.53125 5.84625 6.53125 -8.09375 6.53125 Z " fill="#000000" transform="translate(79.09375,43.46875)"/>
<path d="M0 0 C0.85013672 0.00128906 1.70027344 0.00257812 2.57617188 0.00390625 C10.02325793 0.10904158 10.02325793 0.10904158 13.4375 2.375 C16.2186038 6.56543947 15.80513273 10.95378612 15.8125 15.8125 C15.83699219 16.65876953 15.86148438 17.50503906 15.88671875 18.37695312 C15.90470729 22.2055132 15.64516871 24.89894074 14.1015625 28.4375 C9.83378031 31.54134159 5.57301606 31.06024812 0.4375 30.9375 C-0.56023438 30.94845703 -1.55796875 30.95941406 -2.5859375 30.97070312 C-6.56435352 30.93070564 -9.64117685 30.84312443 -13.21484375 29.02734375 C-15.44822883 24.63178297 -15.178313 20.2296193 -15.125 15.375 C-15.16077148 13.87839844 -15.16077148 13.87839844 -15.19726562 12.3515625 C-15.18294233 5.2281082 -15.18294233 5.2281082 -12.625 1.7109375 C-8.3376272 -0.15931951 -4.62544925 -0.13386677 0 0 Z M-8.5625 6.375 C-10.0796529 9.40930581 -9.78763316 12.54905965 -9.8125 15.875 C-9.833125 16.56464844 -9.85375 17.25429687 -9.875 17.96484375 C-9.92709747 20.20661337 -9.92709747 20.20661337 -9.5625 23.375 C-5.87155532 25.83562979 -3.89205805 25.64316777 0.5 25.625 C1.74910156 25.63015625 2.99820313 25.6353125 4.28515625 25.640625 C7.53441602 25.70824228 7.53441602 25.70824228 9.4375 23.375 C9.60920903 20.64802777 9.6699568 18.03593532 9.625 15.3125 C9.6240332 14.19391602 9.6240332 14.19391602 9.62304688 13.05273438 C9.92572531 9.41482367 9.92572531 9.41482367 8.4375 6.375 C5.57482433 6.30174832 2.736781 6.28261795 -0.125 6.3125 C-0.93130859 6.31701172 -1.73761719 6.32152344 -2.56835938 6.32617188 C-4.56643756 6.33799482 -6.56447783 6.35593086 -8.5625 6.375 Z " fill="#000000" transform="translate(59.5625,114.625)"/>
<path d="M0 0 C1.40897804 0.00333092 1.40897804 0.00333092 2.84642029 0.00672913 C3.90744461 0.00680466 4.96846893 0.00688019 6.06164551 0.00695801 C7.21579453 0.01211929 8.36994354 0.01728058 9.55906677 0.02259827 C10.73404221 0.02401321 11.90901764 0.02542816 13.11959839 0.02688599 C16.88981116 0.0325046 20.65996556 0.04506026 24.43016052 0.05775452 C26.97898779 0.06276712 29.52781599 0.06733044 32.0766449 0.07142639 C38.34033685 0.08248007 44.60399452 0.0992363 50.86766052 0.12025452 C51.93016052 1.99525452 51.93016052 1.99525452 52.86766052 4.12025452 C52.53766052 4.78025452 52.20766052 5.44025452 51.86766052 6.12025452 C33.71766052 6.12025452 15.56766052 6.12025452 -3.13233948 6.12025452 C-3.13233948 0.17665009 -3.13233948 0.17665009 0 0 Z " fill="#000000" transform="translate(48.13233947753906,99.87974548339844)"/>
<path d="M0 0 C18.15 0 36.3 0 55 0 C55.495 1.98 55.495 1.98 56 4 C54 6 54 6 51.75413513 6.24723816 C50.82005325 6.24581314 49.88597137 6.24438812 48.92358398 6.24291992 C47.86586288 6.24599655 46.80814178 6.24907318 45.71836853 6.25224304 C44.57251785 6.24505753 43.42666718 6.23787201 42.24609375 6.23046875 C41.07490494 6.23001053 39.90371613 6.22955231 38.69703674 6.2290802 C36.21801746 6.22605516 33.73900013 6.21816139 31.26000977 6.20581055 C27.44996464 6.18755971 23.64016239 6.18530076 19.83007812 6.18554688 C17.42708122 6.18063171 15.02408597 6.17480339 12.62109375 6.16796875 C11.47321884 6.16685593 10.32534393 6.1657431 9.14268494 6.16459656 C8.088116 6.15821671 7.03354706 6.15183685 5.94702148 6.14526367 C5.0137352 6.14145187 4.08044891 6.13764008 3.11888123 6.13371277 C1 6 1 6 0 5 C0 3.35 0 1.7 0 0 Z " fill="#000000" transform="translate(45,91)"/>
<path d="M0 0 C18.15 0 36.3 0 55 0 C55.495 1.98 55.495 1.98 56 4 C55 5 55 5 52.79173279 5.12025452 C51.81688431 5.11803391 50.84203583 5.11581329 49.83764648 5.11352539 C48.73658066 5.11344986 47.63551483 5.11337433 46.50108337 5.11329651 C45.3031868 5.10813522 44.10529022 5.10297394 42.87109375 5.09765625 C41.65172623 5.0962413 40.4323587 5.09482635 39.17604065 5.09336853 C35.2631693 5.08774967 31.35035419 5.07519396 27.4375 5.0625 C24.79231853 5.05748743 22.14713617 5.0529241 19.50195312 5.04882812 C13.00128274 5.03777411 6.50064539 5.02101764 0 5 C0 3.35 0 1.7 0 0 Z " fill="#000000" transform="translate(45,81)"/>
</svg>
