<?xml version="1.0" encoding="UTF-8"?>
<svg version="1.1" xmlns="http://www.w3.org/2000/svg" width="225" height="225">
<path d="M0 0 C1.7175293 2.28491211 1.7175293 2.28491211 3.57421875 5.27734375 C4.24130859 6.34791016 4.90839844 7.41847656 5.59570312 8.52148438 C6.11015991 9.36199341 6.11015991 9.36199341 6.63500977 10.21948242 C7.68491351 11.93327798 8.74847975 13.63796077 9.81445312 15.34179688 C15 23.72232598 15 23.72232598 15 26 C17.97 26 20.94 26 24 26 C24.26280762 25.28432861 24.52561523 24.56865723 24.79638672 23.83129883 C26.04546108 20.89306041 27.53145026 18.38292732 29.2578125 15.69921875 C29.88300781 14.72275391 30.50820312 13.74628906 31.15234375 12.74023438 C31.80332031 11.73283203 32.45429687 10.72542969 33.125 9.6875 C33.78371094 8.66076172 34.44242187 7.63402344 35.12109375 6.57617188 C36.7436217 4.04832035 38.37002986 1.52305663 40 -1 C47.7991627 1.42582653 55.2924733 4.50744752 62.8137207 7.6706543 C64.95470555 8.56972519 67.09926114 9.45987616 69.24414062 10.34960938 C70.60959826 10.92134208 71.97484077 11.4935889 73.33984375 12.06640625 C73.97937485 12.33103165 74.61890594 12.59565704 75.27781677 12.86830139 C77.97671681 14.01110083 79.90585216 14.90585216 82 17 C81.67423377 19.40898576 81.23956559 21.62522334 80.6640625 23.9765625 C80.50586029 24.66181 80.34765808 25.3470575 80.18466187 26.05307007 C79.67563968 28.24641793 79.15054277 30.43555811 78.625 32.625 C78.27758243 34.10912647 77.93121458 35.59349909 77.5859375 37.078125 C76.7361237 40.72172052 75.87187215 44.36162259 75 48 C77.13193749 50.1838936 77.13193749 50.1838936 80 52 C82.94983319 52.00762153 82.94983319 52.00762153 86 51.078125 C87.134375 50.79453125 88.26875 50.5109375 89.4375 50.21875 C90.613125 49.8990625 91.78875 49.579375 93 49.25 C95.33216321 48.64650163 97.6654621 48.04737101 100 47.453125 C101.03125 47.17629883 102.0625 46.89947266 103.125 46.61425781 C105.85269036 46.03147343 108.22244913 45.88129034 111 46 C115.41541753 54.5231915 119.31188417 63.1765694 122.9375 72.0625 C123.44345703 73.27099609 123.94941406 74.47949219 124.47070312 75.72460938 C124.94314453 76.87896484 125.41558594 78.03332031 125.90234375 79.22265625 C126.33023193 80.26172119 126.75812012 81.30078613 127.19897461 82.37133789 C128 85 128 85 127 88 C124.71508789 89.7175293 124.71508789 89.7175293 121.72265625 91.57421875 C120.65208984 92.24130859 119.58152344 92.90839844 118.47851562 93.59570312 C117.63800659 94.11015991 117.63800659 94.11015991 116.78051758 94.63500977 C115.06672202 95.68491351 113.36203923 96.74847975 111.65820312 97.81445312 C103.27767402 103 103.27767402 103 101 103 C101 105.97 101 108.94 101 112 C101.7209082 112.26949463 102.44181641 112.53898926 103.18457031 112.81665039 C107.99911174 114.84024407 112.31480438 117.69917072 116.75 120.4375 C117.72066406 121.02337891 118.69132813 121.60925781 119.69140625 122.21289062 C120.61308594 122.78072266 121.53476563 123.34855469 122.484375 123.93359375 C123.32709961 124.44978271 124.16982422 124.96597168 125.03808594 125.49780273 C127 127 127 127 128 130 C127.52629089 131.83462524 127.52629089 131.83462524 126.67651367 133.90478516 C126.36256149 134.6821402 126.04860931 135.45949524 125.72514343 136.26040649 C125.37627579 137.09486298 125.02740814 137.92931946 124.66796875 138.7890625 C124.31616043 139.64809174 123.96435211 140.50712097 123.60188293 141.3921814 C122.8556361 143.20800984 122.10466651 145.02190345 121.34936523 146.83398438 C120.19118575 149.61614614 119.05060645 152.40504735 117.91210938 155.1953125 C117.18593373 156.95615755 116.458754 158.71658893 115.73046875 160.4765625 C115.21627632 161.73431992 115.21627632 161.73431992 114.69169617 163.01748657 C114.20658318 164.17406265 114.20658318 164.17406265 113.71166992 165.35400391 C113.42885666 166.03556549 113.1460434 166.71712708 112.85466003 167.41934204 C112 169 112 169 110 170 C107.63803203 169.59332714 105.35193779 169.11832196 103.0234375 168.56640625 C102.33819 168.40961899 101.6529425 168.25283173 100.94692993 168.09129333 C98.75474178 167.58814592 96.56491384 167.07544631 94.375 166.5625 C92.89077034 166.22007256 91.40639689 165.8782677 89.921875 165.53710938 C86.27954114 164.69862626 82.63929574 163.85156868 79 163 C76.77556579 165.05257619 76.77556579 165.05257619 75 168 C75.08839676 171.52118218 75.08839676 171.52118218 76.140625 175.26953125 C76.3016571 175.95053391 76.46268921 176.63153656 76.62860107 177.33317566 C77.14633542 179.49921757 77.69748557 181.65509705 78.25 183.8125 C78.60770717 185.28266029 78.96320184 186.7533608 79.31640625 188.22460938 C80.18538736 191.82302071 81.0845192 195.41310066 82 199 C73.04673337 203.210289 64.02680985 207.17655159 54.875 210.9375 C53.67101562 211.44345703 52.46703125 211.94941406 51.2265625 212.47070312 C49.50179687 213.17936523 49.50179687 213.17936523 47.7421875 213.90234375 C46.7094873 214.33023193 45.67678711 214.75812012 44.61279297 215.19897461 C42 216 42 216 39 215 C37.2824707 212.71508789 37.2824707 212.71508789 35.42578125 209.72265625 C34.42514648 208.11680664 34.42514648 208.11680664 33.40429688 206.47851562 C32.88984009 205.63800659 32.88984009 205.63800659 32.36499023 204.78051758 C31.31508649 203.06672202 30.25152025 201.36203923 29.18554688 199.65820312 C24 191.27767402 24 191.27767402 24 189 C21.03 189 18.06 189 15 189 C14.73050537 189.7209082 14.46101074 190.44181641 14.18334961 191.18457031 C12.15975593 195.99911174 9.30082928 200.31480438 6.5625 204.75 C5.97662109 205.72066406 5.39074219 206.69132813 4.78710938 207.69140625 C4.21927734 208.61308594 3.65144531 209.53476563 3.06640625 210.484375 C2.55021729 211.32709961 2.03402832 212.16982422 1.50219727 213.03808594 C0 215 0 215 -3 216 C-4.79666138 215.51956177 -4.79666138 215.51956177 -6.81298828 214.66064453 C-7.57032257 214.34346466 -8.32765686 214.02628479 -9.10794067 213.69949341 C-10.32681473 213.17148636 -10.32681473 213.17148636 -11.5703125 212.6328125 C-12.40714569 212.27863251 -13.24397888 211.92445251 -14.10617065 211.55953979 C-15.87492354 210.80895911 -17.64173848 210.05379771 -19.40673828 209.29443359 C-22.11748734 208.12823205 -24.83345885 206.97500946 -27.55078125 205.82421875 C-29.26594326 205.0944976 -30.98079785 204.36405336 -32.6953125 203.6328125 C-33.92025925 203.11087814 -33.92025925 203.11087814 -35.16995239 202.57839966 C-40.88182043 200.11817957 -40.88182043 200.11817957 -42 199 C-41.47758605 191.82600568 -40.01566244 184.94418757 -38.4375 177.9375 C-38.20353516 176.88111328 -37.96957031 175.82472656 -37.72851562 174.73632812 C-37.15653688 172.15658727 -36.58028727 169.57788225 -36 167 C-38.05257619 164.77556579 -38.05257619 164.77556579 -41 163 C-44.52118218 163.08839676 -44.52118218 163.08839676 -48.26953125 164.140625 C-48.95053391 164.3016571 -49.63153656 164.46268921 -50.33317566 164.62860107 C-52.49921757 165.14633542 -54.65509705 165.69748557 -56.8125 166.25 C-58.28266029 166.60770717 -59.7533608 166.96320184 -61.22460938 167.31640625 C-64.82302071 168.18538736 -68.41310066 169.0845192 -72 170 C-73.61825367 166.23244883 -75.23563944 162.46452629 -76.85229492 158.69628906 C-77.39992042 157.42015036 -77.9477643 156.14410535 -78.49584961 154.86816406 C-79.82146861 151.78193834 -81.1436212 148.69433543 -82.45849609 145.60351562 C-83.47320162 143.23147673 -84.50184307 140.86534313 -85.54541016 138.50585938 C-86.2441626 136.90194336 -86.2441626 136.90194336 -86.95703125 135.265625 C-87.37573486 134.31977539 -87.79443848 133.37392578 -88.22583008 132.39941406 C-89 130 -89 130 -88 127 C-85.71508789 125.2824707 -85.71508789 125.2824707 -82.72265625 123.42578125 C-81.65208984 122.75869141 -80.58152344 122.09160156 -79.47851562 121.40429688 C-78.63800659 120.88984009 -78.63800659 120.88984009 -77.78051758 120.36499023 C-76.06672202 119.31508649 -74.36203923 118.25152025 -72.65820312 117.18554688 C-64.27767402 112 -64.27767402 112 -62 112 C-62 109.03 -62 106.06 -62 103 C-62.7209082 102.73050537 -63.44181641 102.46101074 -64.18457031 102.18334961 C-68.99911174 100.15975593 -73.31480438 97.30082928 -77.75 94.5625 C-78.72066406 93.97662109 -79.69132812 93.39074219 -80.69140625 92.78710938 C-81.61308594 92.21927734 -82.53476563 91.65144531 -83.484375 91.06640625 C-84.32709961 90.55021729 -85.16982422 90.03402832 -86.03808594 89.50219727 C-88 88 -88 88 -89 85 C-88.51956177 83.20333862 -88.51956177 83.20333862 -87.66064453 81.18701172 C-87.34346466 80.42967743 -87.02628479 79.67234314 -86.69949341 78.89205933 C-86.34748871 78.07947662 -85.99548401 77.26689392 -85.6328125 76.4296875 C-85.27863251 75.59285431 -84.92445251 74.75602112 -84.55953979 73.89382935 C-83.80895911 72.12507646 -83.05379771 70.35826152 -82.29443359 68.59326172 C-81.12823205 65.88251266 -79.97500946 63.16654115 -78.82421875 60.44921875 C-78.0944976 58.73405674 -77.36405336 57.01920215 -76.6328125 55.3046875 C-76.28485626 54.48805634 -75.93690002 53.67142517 -75.57839966 52.83004761 C-73.11817957 47.11817957 -73.11817957 47.11817957 -72 46 C-64.82600568 46.52241395 -57.94418757 47.98433756 -50.9375 49.5625 C-49.88111328 49.79646484 -48.82472656 50.03042969 -47.73632812 50.27148438 C-45.15658727 50.84346312 -42.57788225 51.41971273 -40 52 C-37.8161064 49.86806251 -37.8161064 49.86806251 -36 47 C-35.99237847 44.05016681 -35.99237847 44.05016681 -36.921875 41 C-37.20546875 39.865625 -37.4890625 38.73125 -37.78125 37.5625 C-38.1009375 36.386875 -38.420625 35.21125 -38.75 34 C-39.35349837 31.66783679 -39.95262899 29.3345379 -40.546875 27 C-40.82370117 25.96875 -41.10052734 24.9375 -41.38574219 23.875 C-41.96852657 21.14730964 -42.11870966 18.77755087 -42 16 C-34.50670992 12.08002654 -26.8245458 8.68213727 -19.02026367 5.44091797 C-17.03741409 4.61454519 -15.06084383 3.77417883 -13.08398438 2.93359375 C-11.8180682 2.4053867 -10.55180471 1.8780111 -9.28515625 1.3515625 C-8.14957275 0.87541504 -7.01398926 0.39926758 -5.84399414 -0.09130859 C-3 -1 -3 -1 0 0 Z M-17.5625 18.875 C-18.45130859 19.23980469 -19.34011719 19.60460937 -20.25585938 19.98046875 C-21.10083984 20.33496094 -21.94582031 20.68945312 -22.81640625 21.0546875 C-23.59443604 21.37937012 -24.37246582 21.70405273 -25.17407227 22.03857422 C-27.17594896 22.86601164 -27.17594896 22.86601164 -28 25 C-27.59855125 27.12265796 -27.10364844 29.22789554 -26.56640625 31.3203125 C-26.24736328 32.57714844 -25.92832031 33.83398438 -25.59960938 35.12890625 C-25.25405751 36.46097675 -24.90835239 37.7930075 -24.5625 39.125 C-24.22005847 40.46467913 -23.87825348 41.80452115 -23.53710938 43.14453125 C-22.69767068 46.43134754 -21.85170406 49.71634453 -21 53 C-21.61206299 53.28681641 -22.22412598 53.57363281 -22.85473633 53.86914062 C-25.63607686 55.33530306 -27.48825375 57.26076745 -29.6875 59.5 C-30.47511719 60.2940625 -31.26273438 61.088125 -32.07421875 61.90625 C-34.04025802 63.85023032 -34.04025802 63.85023032 -35 66 C-38.14616546 65.37666455 -41.29186743 64.75101862 -44.4375 64.125 C-45.31599609 63.95097656 -46.19449219 63.77695313 -47.09960938 63.59765625 C-52.75101906 62.4715451 -58.37901453 61.26943924 -64 60 C-69.17905367 69.71603782 -69.17905367 69.71603782 -73 80 C-72.3201172 83.14208646 -72.3201172 83.14208646 -69.77514648 84.29248047 C-68.81680908 84.72963379 -67.85847168 85.16678711 -66.87109375 85.6171875 C-51.09468698 93.42336238 -51.09468698 93.42336238 -47.54443359 99.48535156 C-45.72332688 104.92127901 -45.72332688 110.07872099 -47.54443359 115.51464844 C-52.07045679 123.24274574 -61.93511948 127.1312281 -69.77514648 130.70751953 C-72.3201172 131.85791354 -72.3201172 131.85791354 -73 135 C-72.43442074 137.14693324 -72.43442074 137.14693324 -71.41796875 139.4140625 C-71.06283203 140.25710937 -70.70769531 141.10015625 -70.34179688 141.96875 C-69.77041992 143.28359375 -69.77041992 143.28359375 -69.1875 144.625 C-68.81818359 145.50929687 -68.44886719 146.39359375 -68.06835938 147.3046875 C-66.44295584 151.94206565 -66.44295584 151.94206565 -63 155 C-61.04881174 154.68156667 -59.11218741 154.27210203 -57.1875 153.8203125 C-56.02992187 153.55089844 -54.87234375 153.28148437 -53.6796875 153.00390625 C-52.46539062 152.71386719 -51.25109375 152.42382812 -50 152.125 C-48.78570312 151.84269531 -47.57140625 151.56039062 -46.3203125 151.26953125 C-40.51130628 150.06853595 -40.51130628 150.06853595 -35 148 C-34.773125 148.55171875 -34.54625 149.1034375 -34.3125 149.671875 C-32.61274074 152.68692417 -30.45195184 154.81230369 -28 157.25 C-27.113125 158.14203125 -26.22625 159.0340625 -25.3125 159.953125 C-23.26510897 162.22093073 -23.26510897 162.22093073 -21 162 C-21.21205078 162.83772949 -21.42410156 163.67545898 -21.64257812 164.53857422 C-22.42717875 167.64291988 -23.20966871 170.74778761 -23.99072266 173.85302734 C-24.32939287 175.19764226 -24.66890698 176.54204491 -25.00927734 177.88623047 C-25.49798109 179.816824 -25.98341312 181.74824481 -26.46875 183.6796875 C-26.76201172 184.84226074 -27.05527344 186.00483398 -27.35742188 187.20263672 C-28.07462595 189.84650283 -28.07462595 189.84650283 -28 192 C-24.73540494 193.36957005 -21.46246823 194.71794485 -18.1875 196.0625 C-17.25873047 196.45244141 -16.32996094 196.84238281 -15.37304688 197.24414062 C-14.48037109 197.60830078 -13.58769531 197.97246094 -12.66796875 198.34765625 C-11.43469849 198.85824585 -11.43469849 198.85824585 -10.17651367 199.37915039 C-7.85103423 200.26386099 -7.85103423 200.26386099 -5 199 C-3.28039428 196.84607974 -3.28039428 196.84607974 -1.64453125 194.16015625 C-1.02255859 193.17982422 -0.40058594 192.19949219 0.24023438 191.18945312 C0.88283203 190.15755859 1.52542969 189.12566406 2.1875 188.0625 C2.84169922 187.03447266 3.49589844 186.00644531 4.16992188 184.94726562 C7.55881525 180.30101901 7.55881525 180.30101901 9 175 C9.99 175.33 10.98 175.66 12 176 C13.25683594 175.80019531 14.51367188 175.60039062 15.80859375 175.39453125 C20.71266022 174.6893087 25.30558405 174.11356266 30 176 C35.03025732 180.83937702 37.98073306 187.43080971 40.84350586 193.70996094 C42.01689984 196.03346432 43.38020701 197.96848414 45 200 C52.60837466 197.92957946 59.7728592 195.14169523 67 192 C63.93518962 176.89598054 63.93518962 176.89598054 60 162 C60.55171875 161.773125 61.1034375 161.54625 61.671875 161.3125 C64.68692417 159.61274074 66.81230369 157.45195184 69.25 155 C70.14203125 154.113125 71.0340625 153.22625 71.953125 152.3125 C74.22093073 150.26510897 74.22093073 150.26510897 74 148 C74.90878906 148.25394531 75.81757813 148.50789062 76.75390625 148.76953125 C85.78152869 151.24171093 94.79883894 153.27722942 104 155 C105.36957005 151.73540494 106.71794485 148.46246823 108.0625 145.1875 C108.45244141 144.25873047 108.84238281 143.32996094 109.24414062 142.37304688 C109.60830078 141.48037109 109.97246094 140.58769531 110.34765625 139.66796875 C110.68804932 138.84578857 111.02844238 138.0236084 111.37915039 137.17651367 C112.26386099 134.85103423 112.26386099 134.85103423 111 132 C108.84607974 130.28039428 108.84607974 130.28039428 106.16015625 128.64453125 C105.17982422 128.02255859 104.19949219 127.40058594 103.18945312 126.75976562 C102.15755859 126.11716797 101.12566406 125.47457031 100.0625 124.8125 C99.03447266 124.15830078 98.00644531 123.50410156 96.94726562 122.83007812 C92.30101901 119.44118475 92.30101901 119.44118475 87 118 C87.33 117.01 87.66 116.02 88 115 C87.80019531 113.74316406 87.60039062 112.48632812 87.39453125 111.19140625 C86.6893087 106.28733978 86.11356266 101.69441595 88 97 C92.83937702 91.96974268 99.43080971 89.01926694 105.70996094 86.15649414 C108.03346432 84.98310016 109.96848414 83.61979299 112 82 C109.92957946 74.39162534 107.14169523 67.2271408 104 60 C88.89598054 63.06481038 88.89598054 63.06481038 74 67 C73.773125 66.44828125 73.54625 65.8965625 73.3125 65.328125 C71.61274074 62.31307583 69.45195184 60.18769631 67 57.75 C65.6696875 56.41195312 65.6696875 56.41195312 64.3125 55.046875 C62.26510897 52.77906927 62.26510897 52.77906927 60 53 C60.25394531 52.09121094 60.50789062 51.18242188 60.76953125 50.24609375 C63.24171093 41.21847131 65.27722942 32.20116106 67 23 C63.73540494 21.63042995 60.46246823 20.28205515 57.1875 18.9375 C56.25873047 18.54755859 55.32996094 18.15761719 54.37304688 17.75585938 C53.48037109 17.39169922 52.58769531 17.02753906 51.66796875 16.65234375 C50.84578857 16.31195068 50.0236084 15.97155762 49.17651367 15.62084961 C46.85103423 14.73613901 46.85103423 14.73613901 44 16 C42.61826827 18.29469098 42.61826827 18.29469098 41.3828125 21.12890625 C33.50537793 37.04063243 33.50537793 37.04063243 27.48242188 40.40722656 C22.02346969 42.09231151 16.83172489 42.03258254 11.390625 40.30029297 C4.43296461 36.51592826 1.12361901 28.25980319 -1.89111328 21.29003906 C-3.04061402 18.91612516 -4.26363592 16.98522964 -6 15 C-10.02921316 15 -13.89487918 17.33101979 -17.5625 18.875 Z " fill="#000000" transform="translate(93,5)"/>
<path d="M0 0 C10.28188581 6.95787889 16.41691167 16.14255959 18.9765625 28.3046875 C20.47172647 41.05211644 17.10219436 51.76739282 9.23046875 61.828125 C1.66556529 70.14034128 -7.77507601 74.19499116 -18.83984375 75.68359375 C-29.9064422 76.18295991 -39.96902939 72.36625024 -48.58203125 65.55859375 C-57.36661611 57.448665 -61.98423903 46.75402138 -62.5234375 34.8046875 C-61.94422776 22.35167819 -56.9063343 11.62283379 -47.73828125 3.20703125 C-33.47189299 -7.71893439 -15.56933725 -8.7300935 0 0 Z M-42.0234375 15.3046875 C-47.75330264 23.7028722 -50.0097342 30.09043677 -49.0234375 40.3046875 C-46.39437001 49.94914235 -41.95940576 55.04377945 -33.4609375 60.0703125 C-26.7932424 63.44690168 -18.86885672 63.5318493 -11.81640625 61.28125 C-3.77101977 57.61781616 1.83226892 52.71647607 5.125 44.40625 C7.64754859 35.21861891 6.44968698 27.15739491 1.8125 18.90625 C-2.4714227 12.83584039 -8.75925591 8.87147176 -16.0234375 7.3046875 C-25.4378744 6.15796661 -35.298775 8.20643264 -42.0234375 15.3046875 Z " fill="#010101" transform="translate(134.0234375,77.6953125)"/>
</svg>
